<?xml version="1.0" encoding="utf-8"?>
<!-- Generator: Adobe Illustrator 24.3.0, SVG Export Plug-In . SVG Version: 6.00 Build 0)  -->
<svg version="1.1" xmlns="http://www.w3.org/2000/svg" xmlns:xlink="http://www.w3.org/1999/xlink" x="0px" y="0px"
	 viewBox="0 0 500 500" style="enable-background:new 0 0 500 500;" xml:space="preserve">
<style type="text/css">
	.st0{fill:#438DCC;}
	.st1{fill:#FAFAFA;}
</style>
<g id="Слой_3">
	<circle class="st0" cx="250" cy="250.15" r="243.57"/>
</g>
<g id="Слой_2">
	<g>
		<g>
			<path class="st1" d="M112.99,380.7c-2.3,0-4.16-0.83-5.56-2.49c-1.41-1.66-2.11-3.64-2.11-5.94c0-1.28,0.19-2.3,0.58-3.07
				c0.38-0.77,0.7-1.4,0.96-1.92l58.66-81.66c-6.39,1.53-13.29,2.3-20.7,2.3c-14.32-0.25-27.09-2.81-38.34-7.67
				c-11.25-4.85-20.83-11.44-28.75-19.74c-7.93-8.3-13.93-17.7-18.02-28.18c-4.09-10.48-6.13-21.47-6.13-32.97
				c0-11.24,1.98-22.24,5.94-32.97c3.96-10.73,9.97-20.45,18.02-29.14c8.05-8.69,18.08-15.65,30.1-20.89
				c12.01-5.24,26.2-7.86,42.56-7.86c16.1,0,30.22,2.49,42.36,7.48c12.14,4.98,22.36,11.76,30.67,20.32
				c8.3,8.57,14.44,18.21,18.4,28.95c3.96,10.73,5.94,21.85,5.94,33.35c0,10.48-1.53,20.07-4.6,28.75
				c-3.07,8.69-6.71,16.49-10.93,23.39c-4.22,6.9-8.37,13.29-12.46,19.17l-73.61,103.13c-1.02,1.28-2.43,2.88-4.22,4.79
				c-1.79,1.92-4.47,2.88-8.05,2.88H112.99z M150.18,256.87c10.73,0,20.64-2.36,29.71-7.09c9.07-4.73,16.29-11.37,21.66-19.94
				c5.37-8.56,8.05-18.85,8.05-30.86c0-12.01-2.68-22.3-8.05-30.86c-5.37-8.56-12.59-15.2-21.66-19.94
				c-9.08-4.73-18.98-7.09-29.71-7.09c-10.48,0-20.19,2.37-29.14,7.09c-8.95,4.73-16.1,11.38-21.47,19.94
				c-5.37,8.57-8.05,18.85-8.05,30.86c0,12.02,2.68,22.3,8.05,30.86c5.37,8.57,12.52,15.21,21.47,19.94
				C129.99,254.51,139.7,256.87,150.18,256.87z"/>
			<path class="st1" d="M354.9,384.54c-21.22,0-39.24-4.28-54.06-12.84c-14.83-8.56-26.14-19.8-33.93-33.74
				c-7.8-13.93-11.69-29.07-11.69-45.43c0-7.67,0.96-15.01,2.88-22.04c1.92-7.03,4.34-13.67,7.29-19.94
				c2.93-6.26,5.88-11.88,8.82-16.87c2.94-4.98,5.56-9.01,7.86-12.08L354.9,120c1.28-1.28,2.81-2.88,4.6-4.79
				c1.79-1.92,4.47-2.88,8.05-2.88h20.32c2.3,0,4.15,0.83,5.56,2.49c1.4,1.67,2.11,3.64,2.11,5.94c0,1.02-0.13,1.98-0.38,2.88
				c-0.26,0.9-0.64,1.6-1.15,2.11l-55.97,78.21c3.07-1.02,6.58-1.73,10.54-2.11c3.96-0.38,7.73-0.58,11.31-0.58
				c14.05,0.26,26.84,2.82,38.34,7.67c11.5,4.86,21.4,11.44,29.71,19.74c8.3,8.31,14.63,17.89,18.98,28.75
				c4.34,10.87,6.52,22.43,6.52,34.7c0,16.1-3.83,31.19-11.5,45.24c-7.67,14.06-18.85,25.43-33.54,34.12
				C393.68,380.19,375.85,384.54,354.9,384.54z M354.52,351.95c10.74,0,20.7-2.3,29.9-6.9s16.68-11.31,22.43-20.13
				c5.75-8.82,8.63-19.61,8.63-32.4c0-13.04-2.82-23.96-8.44-32.78c-5.62-8.82-13.1-15.46-22.43-19.94
				c-9.33-4.47-19.36-6.71-30.1-6.71c-10.73,0-20.7,2.24-29.9,6.71c-9.2,4.48-16.68,11.12-22.43,19.94
				c-5.75,8.82-8.63,19.74-8.63,32.78c0,12.78,2.88,23.58,8.63,32.4c5.75,8.82,13.23,15.53,22.43,20.13S343.78,351.95,354.52,351.95
				z"/>
		</g>
	</g>
</g>
</svg>
